<?xml version="1.0" encoding="UTF-8"?>
<svg width="700pt" height="700pt" version="1.1" viewBox="0 0 700 700" xmlns="http://www.w3.org/2000/svg" xmlns:xlink="http://www.w3.org/1999/xlink">
 <g>
  <path fill="white" d="m395.42 45.488c0 24.945-20.219 45.164-45.16 45.164-24.941 0-45.164-20.219-45.164-45.164 0-24.941 20.223-45.16 45.164-45.16 24.941 0 45.16 20.219 45.16 45.16"/>
  <path fill="white" d="m158.52 296.87v-12.836c-12.98-1.8789-25-7.1562-32.43-11.895l9.0508-14.469c5.8125 3.3984 15 7.1641 23.379 9.2188v-23.008l-5.6641-2.0312c-11.078-4.0703-24.609-10.652-24.609-27.176 0-15.121 11.215-26.07 30.277-27.293v-12.312h14.215v13.004c10.402 1.5938 20.672 5.1133 28.129 8.9102l-9.0625 14.734c-5.1367-2.4219-12.43-5.0117-19.066-6.4961v21.754c1.6016 0.55859 3.3789 1.0664 5.1445 1.7578 11.215 4.082 26.078 10.562 26.078 28.121 0 15.812-12.301 26.637-31.215 27.863v12.156h-14.227zm0-74.336v-18.004c-5.125 0.96484-9.043 3.793-9.043 8.7852-0.003907 4.5977 3.4844 7.1797 9.043 9.2188zm14.211 25.957v19.328c5.5312-1.0547 10.004-4.0625 10.004-9.457 0-4.7812-3.9375-7.4727-10.004-9.8711z"/>
  <path fill="white" d="m528.49 266.89v-23.008l-5.6914-2.0312c-11.066-4.0703-24.598-10.652-24.598-27.176 0-15.121 11.223-26.07 30.281-27.293v-12.312h14.207v13.004c10.391 1.5938 20.66 5.1133 28.129 8.9102l-9.0625 14.734c-5.1445-2.4219-12.441-5.0117-19.066-6.4961v21.754c1.6016 0.55859 3.3672 1.0664 5.1445 1.7578 11.211 4.082 26.078 10.562 26.078 28.121 0 15.812-12.309 26.637-31.215 27.863v12.156h-14.207v-12.836c-12.988-1.8789-25.012-7.1562-32.441-11.895l9.0391-14.469c5.8281 3.3906 15.016 7.1602 23.402 9.2148zm0-62.359c-5.1328 0.96484-9.0625 3.793-9.0625 8.7852 0 4.5977 3.5078 7.1875 9.0625 9.2188zm14.207 63.281c5.5195-1.0547 9.9961-4.0625 9.9961-9.457 0-4.7734-3.9297-7.4688-9.9961-9.8711z"/>
  <path fill="white" d="m554.02 145.34h22.098c28.887 0.078125 28.887-44.703 0.023437-44.703h-13.473l14.285-36.098h-85.363l14.285 36.098-311.76 0.003906 14.293-36.098-85.363-0.003906 14.293 36.098h-13.48c-28.875 0-28.875 44.781 0.019531 44.703h22.098c-41.602 9.5859-72.75 46.855-72.75 91.332 0 51.73 42.082 93.793 93.793 93.793 51.727 0 93.801-42.07 93.801-93.793 0-44.477-31.148-81.746-72.758-91.332l97.348 0.25391-0.13672 387.46c0 14.855 12.066 26.941 26.934 26.941 14.891 0 26.941-12.082 26.941-26.941l-0.078126-206.24h22.359v206.24c0 14.855 12.07 26.941 26.988 26.941 14.855 0 26.926-12.082 26.926-26.941l-0.25-387.46 96.832-0.25391c-41.609 9.5859-72.746 46.855-72.746 91.332 0 51.73 42.074 93.793 93.789 93.793 51.727 0 93.801-42.07 93.801-93.793 0.007813-44.477-31.141-81.746-72.746-91.332zm-368.87-64.984-7.9883 20.242-22.719 0.042969-8.1406-20.285zm58.867 156.32c0 42.457-34.539 77.004-76.996 77.004-42.457 0-76.992-34.547-76.992-77.004s34.539-76.992 76.992-76.992c42.453-0.003906 76.996 34.535 76.996 76.992zm309.68-156.32-8.1523 20.285-22.699-0.042969-7.9961-20.242zm-20.723 233.32c-42.449 0-76.984-34.547-76.984-77.004s34.535-76.992 76.984-76.992c42.449 0 76.996 34.539 76.996 76.992 0.003906 42.457-34.543 77.004-76.996 77.004z"/>
  <use x="46.695312" y="650.992188" xlink:href="#u"/>
  <use x="68.953125" y="650.992188" xlink:href="#b"/>
  <use x="83.910156" y="650.992188" xlink:href="#a"/>
  <use x="104.480469" y="650.992188" xlink:href="#f"/>
  <use x="124.949219" y="650.992188" xlink:href="#d"/>
  <use x="139.449219" y="650.992188" xlink:href="#a"/>
  <use x="160.019531" y="650.992188" xlink:href="#e"/>
  <use x="192.289062" y="650.992188" xlink:href="#k"/>
  <use x="214" y="650.992188" xlink:href="#j"/>
  <use x="244.332031" y="650.992188" xlink:href="#i"/>
  <use x="263.660156" y="650.992188" xlink:href="#h"/>
  <use x="285.25" y="650.992188" xlink:href="#t"/>
  <use x="295.648438" y="650.992188" xlink:href="#s"/>
  <use x="324.261719" y="650.992188" xlink:href="#g"/>
  <use x="346.488281" y="650.992188" xlink:href="#b"/>
  <use x="361.449219" y="650.992188" xlink:href="#f"/>
  <use x="381.914062" y="650.992188" xlink:href="#e"/>
  <use x="403.625" y="650.992188" xlink:href="#c"/>
  <use x="46.695312" y="681.324219" xlink:href="#r"/>
  <use x="59.890625" y="681.324219" xlink:href="#b"/>
  <use x="74.847656" y="681.324219" xlink:href="#c"/>
  <use x="95.683594" y="681.324219" xlink:href="#q"/>
  <use x="137.847656" y="681.324219" xlink:href="#d"/>
  <use x="152.347656" y="681.324219" xlink:href="#p"/>
  <use x="173.941406" y="681.324219" xlink:href="#a"/>
  <use x="205.070313" y="681.324219" xlink:href="#o"/>
  <use x="230.453125" y="681.324219" xlink:href="#c"/>
  <use x="251.292969" y="681.324219" xlink:href="#h"/>
  <use x="272.886719" y="681.324219" xlink:href="#n"/>
  <use x="305.039062" y="681.324219" xlink:href="#g"/>
  <use x="327.265625" y="681.324219" xlink:href="#b"/>
  <use x="342.226562" y="681.324219" xlink:href="#c"/>
  <use x="363.0625" y="681.324219" xlink:href="#m"/>
  <use x="373.457031" y="681.324219" xlink:href="#a"/>
  <use x="394.03125" y="681.324219" xlink:href="#l"/>
  <use x="412.007812" y="681.324219" xlink:href="#d"/>
 </g>
</svg>
